<svg id="svg" version="1.1" xmlns="http://www.w3.org/2000/svg" xmlns:xlink="http://www.w3.org/1999/xlink" width="400" height="400" viewBox="0, 0, 400,400"><g id="svgg"><path id="path0" d="M186.914 69.953 C 150.820 70.077,120.850 70.287,120.313 70.420 C 119.775 70.552,117.930 70.857,116.211 71.098 C 114.492 71.339,111.801 71.888,110.231 72.319 C 108.661 72.749,107.079 73.160,106.715 73.232 C 106.132 73.348,103.640 74.264,101.367 75.197 C 100.937 75.374,100.498 75.549,100.391 75.587 C 97.634 76.554,90.642 80.658,87.784 82.986 C 86.583 83.965,85.402 84.766,85.160 84.766 C 84.918 84.766,84.814 84.919,84.930 85.106 C 85.046 85.294,84.374 86.129,83.436 86.962 C 74.795 94.642,68.745 107.728,66.844 122.852 C 65.969 129.804,65.889 134.535,65.833 182.227 C 65.800 209.512,65.623 232.172,65.438 232.584 C 65.227 233.051,65.244 233.244,65.481 233.097 C 65.709 232.956,65.879 233.860,65.909 235.371 C 65.936 236.751,65.795 237.981,65.596 238.104 C 65.397 238.227,65.237 238.537,65.240 238.793 C 65.244 239.080,65.384 239.041,65.606 238.689 C 65.829 238.336,65.971 243.232,65.980 251.603 C 65.992 263.641,66.533 277.381,67.025 278.178 C 67.401 278.786,68.834 286.972,68.812 288.389 C 68.800 289.201,68.947 289.768,69.139 289.650 C 69.527 289.410,70.857 292.202,71.510 294.626 C 71.744 295.494,72.351 296.863,72.859 297.669 C 73.368 298.474,74.180 299.987,74.663 301.031 C 75.147 302.075,75.649 303.018,75.780 303.125 C 76.621 303.816,78.125 306.262,78.125 306.939 C 78.125 307.443,78.641 308.068,79.492 308.594 C 80.244 309.058,80.859 309.628,80.859 309.860 C 80.859 310.092,81.431 310.788,82.129 311.406 C 82.827 312.025,83.926 313.019,84.570 313.614 C 85.215 314.210,86.740 315.505,87.959 316.493 C 89.179 317.480,90.101 318.391,90.010 318.519 C 89.919 318.646,89.958 318.665,90.098 318.561 C 90.238 318.456,91.166 318.955,92.159 319.669 C 95.678 322.197,104.304 326.111,108.689 327.169 C 109.294 327.315,109.650 327.605,109.507 327.836 C 109.365 328.067,109.441 328.130,109.682 327.981 C 109.918 327.836,112.010 328.057,114.333 328.473 C 123.503 330.115,124.421 330.131,202.344 329.985 C 284.209 329.831,280.717 329.927,289.648 327.591 C 308.423 322.680,322.348 310.503,329.092 293.098 C 329.927 290.943,330.323 290.343,330.811 290.498 C 331.327 290.661,331.343 290.626,330.895 290.308 C 330.425 289.973,330.437 289.587,330.978 287.634 C 332.174 283.318,333.210 276.381,333.620 269.935 C 334.346 258.523,333.895 127.366,333.112 122.266 C 331.447 111.414,328.010 102.106,322.892 94.590 C 321.724 92.875,320.885 91.354,321.029 91.211 C 321.172 91.068,321.113 90.994,320.898 91.048 C 320.684 91.102,318.750 89.391,316.602 87.247 C 310.391 81.047,302.179 76.109,293.945 73.622 C 292.012 73.038,290.371 72.405,290.299 72.215 C 290.227 72.025,290.030 71.955,289.862 72.059 C 289.694 72.163,288.253 71.998,286.660 71.694 C 276.771 69.802,269.188 69.669,186.914 69.953 M209.683 91.823 C 242.286 95.405,267.170 118.898,272.709 151.326 C 274.234 160.253,273.923 160.547,262.940 160.547 C 253.087 160.547,252.344 160.289,252.344 156.874 C 252.344 153.923,253.762 153.125,259.003 153.125 C 263.562 153.125,263.311 153.635,261.746 147.565 C 256.718 128.066,243.836 113.163,225.586 105.732 C 219.496 103.252,210.751 101.204,206.152 101.180 L 204.688 101.172 204.682 107.910 C 204.674 116.647,203.941 118.024,199.936 116.824 C 197.827 116.192,197.656 115.516,197.656 107.787 L 197.656 101.172 195.742 101.172 C 185.220 101.172,166.749 108.563,160.167 115.408 L 158.810 116.818 163.376 121.202 C 168.963 126.568,169.716 128.952,166.371 130.682 C 164.014 131.901,161.713 130.503,155.485 124.066 C 153.299 121.806,153.109 121.817,151.123 124.316 C 145.300 131.645,138.866 146.390,138.680 152.832 C 138.676 152.993,140.526 153.125,142.791 153.125 C 148.431 153.125,150.262 155.078,148.257 158.956 C 147.448 160.519,147.282 160.547,138.614 160.547 C 128.572 160.547,128.143 160.290,128.683 154.584 C 132.366 115.655,168.906 87.343,209.683 91.823 M240.549 121.967 C 240.740 122.955,233.293 137.500,232.595 137.500 C 231.947 137.500,225.270 131.760,225.083 131.042 C 224.979 130.646,232.381 125.476,237.485 122.379 C 239.713 121.027,240.350 120.941,240.549 121.967 M210.395 130.406 C 243.810 139.192,252.638 174.631,228.386 202.632 C 220.168 212.120,219.665 212.877,216.565 220.402 C 206.501 244.830,181.312 251.493,165.125 234.009 C 157.033 225.269,155.633 215.874,159.853 198.633 C 161.914 190.212,162.084 185.194,160.538 178.320 C 153.951 149.019,181.284 122.752,210.395 130.406 M196.253 139.456 C 189.667 140.360,183.879 143.373,178.699 148.593 C 170.884 156.470,168.802 164.693,171.084 178.671 C 172.453 187.059,172.123 192.904,169.762 202.115 C 166.486 214.895,167.484 221.760,173.478 227.669 C 184.339 238.376,202.474 232.254,207.417 216.211 C 209.212 210.383,213.247 203.835,218.683 197.925 C 230.804 184.748,234.599 171.205,229.611 158.933 C 224.470 146.284,209.633 137.621,196.253 139.456 M204.459 149.813 C 215.244 152.622,222.474 162.729,221.756 173.990 C 221.234 182.158,215.517 192.550,212.341 191.103 C 211.062 190.521,211.056 189.716,212.305 186.254 C 218.491 169.103,205.922 151.564,192.629 158.799 C 185.597 162.627,183.297 173.165,188.925 175.774 C 189.860 176.208,191.401 176.922,192.349 177.362 C 199.633 180.741,202.739 189.197,199.279 196.226 C 197.793 199.245,196.963 200.037,192.456 202.735 C 189.200 204.686,188.753 205.100,187.634 207.206 C 185.757 210.740,183.659 211.574,181.443 209.667 C 178.098 206.791,180.943 200.127,186.915 196.849 C 194.822 192.510,194.610 187.160,186.380 183.343 C 181.033 180.862,179.079 178.711,178.164 174.297 C 175.088 159.469,189.612 145.945,204.459 149.813 M112.567 264.318 C 114.056 265.666,112.840 268.359,110.742 268.359 C 109.569 268.359,108.203 267.098,108.203 266.016 C 108.203 264.086,111.076 262.969,112.567 264.318 M98.435 264.489 C 102.903 265.447,106.250 269.957,106.250 275.019 C 106.250 283.268,100.327 287.569,90.430 286.509 L 87.891 286.237 87.891 275.410 C 87.891 269.455,88.008 264.466,88.151 264.323 C 88.573 263.901,96.272 264.025,98.435 264.489 M173.059 265.474 C 180.696 269.740,180.238 282.080,172.315 285.488 C 170.256 286.374,163.503 287.055,161.575 286.571 L 160.547 286.313 160.547 275.448 C 160.547 269.473,160.679 264.448,160.840 264.283 C 161.724 263.377,170.907 264.272,173.059 265.474 M215.151 268.066 C 215.213 270.172,215.431 271.875,215.639 271.875 C 215.846 271.875,216.016 271.704,216.016 271.494 C 216.016 270.143,220.967 269.432,223.014 270.491 C 225.011 271.524,225.391 273.045,225.391 280.022 L 225.391 286.293 224.057 286.543 C 221.195 287.080,221.094 286.897,221.088 281.126 C 221.082 275.523,220.711 274.111,219.189 273.893 C 216.050 273.444,215.234 275.038,215.234 281.621 C 215.234 286.825,215.141 286.982,212.254 286.652 L 211.133 286.523 211.029 275.787 C 210.907 263.242,210.770 263.984,213.180 264.139 L 215.039 264.258 215.151 268.066 M232.338 268.036 L 232.449 271.814 234.096 270.873 C 241.803 266.466,248.667 277.853,242.435 284.705 C 240.480 286.854,236.531 287.435,234.073 285.936 C 232.545 285.005,232.422 284.989,232.422 285.724 C 232.422 286.391,230.152 286.919,228.940 286.534 C 228.139 286.280,228.125 286.083,228.125 275.429 C 228.125 263.397,228.004 263.982,230.454 264.142 L 232.227 264.258 232.338 268.036 M310.455 275.293 L 310.352 286.523 308.728 286.642 C 307.437 286.736,306.986 286.591,306.527 285.936 L 305.950 285.112 304.635 285.914 C 299.790 288.868,294.063 284.852,294.063 278.500 C 294.063 272.093,299.852 267.810,304.599 270.705 C 305.303 271.133,305.962 271.484,306.064 271.484 C 306.166 271.484,306.250 269.932,306.250 268.034 C 306.250 264.001,306.213 264.063,308.665 264.063 L 310.559 264.063 310.455 275.293 M92.751 268.863 C 92.134 270.471,92.789 282.220,93.503 282.357 C 100.737 283.746,104.617 273.441,98.441 269.238 C 96.955 268.226,93.093 267.971,92.751 268.863 M165.234 275.391 L 165.234 282.422 166.909 282.422 C 171.243 282.422,174.038 279.228,173.703 274.660 C 173.408 270.652,171.088 268.359,167.325 268.359 L 165.234 268.359 165.234 275.391 M127.116 270.159 C 128.860 270.828,127.917 273.519,124.414 277.874 C 120.291 282.999,120.292 282.976,124.121 282.727 C 128.006 282.474,128.125 282.529,128.125 284.577 C 128.125 286.742,127.987 286.785,121.459 286.669 C 113.723 286.530,113.398 285.659,118.555 278.861 C 122.583 273.550,122.572 273.828,118.750 273.828 L 115.625 273.828 115.625 272.103 C 115.625 271.088,115.826 270.296,116.113 270.181 C 116.818 269.896,126.383 269.877,127.116 270.159 M142.109 271.713 C 142.217 273.188,141.973 273.639,138.886 277.664 C 134.807 282.985,134.817 282.864,138.466 282.556 C 141.839 282.271,142.578 282.628,142.578 284.540 C 142.578 286.562,142.141 286.719,136.543 286.713 C 127.933 286.704,127.620 286.011,133.008 278.884 C 134.834 276.468,136.328 274.342,136.328 274.160 C 136.328 273.977,134.834 273.828,133.008 273.828 L 129.688 273.828 129.688 272.103 C 129.688 269.918,129.554 269.959,136.328 270.045 L 141.992 270.117 142.109 271.713 M147.346 270.410 C 147.687 270.679,148.638 272.964,149.459 275.488 C 150.280 278.013,151.059 280.078,151.192 280.078 C 151.324 280.078,152.097 277.925,152.910 275.293 C 154.517 270.087,154.624 269.934,156.641 269.934 C 159.435 269.934,159.446 269.818,155.681 279.953 C 151.367 291.566,150.144 293.262,146.347 292.893 C 144.471 292.711,144.418 288.945,146.289 288.737 C 149.486 288.381,149.469 287.664,146.049 278.531 C 144.520 274.449,143.372 270.842,143.498 270.516 C 143.780 269.780,146.452 269.707,147.346 270.410 M191.008 270.606 C 193.815 272.017,194.173 273.151,194.052 280.247 C 193.946 286.504,193.942 286.524,193.027 286.653 C 191.647 286.849,190.234 286.387,190.234 285.741 C 190.234 285.280,189.929 285.328,188.659 285.990 C 185.249 287.767,180.966 286.435,180.109 283.330 C 179.105 279.694,181.997 276.959,187.502 276.336 C 189.324 276.130,189.844 275.926,189.844 275.418 C 189.844 273.676,186.474 273.182,184.607 274.650 C 182.723 276.132,179.841 274.342,181.242 272.560 C 183.155 270.128,188.091 269.141,191.008 270.606 M205.346 270.339 C 208.145 271.399,208.842 273.060,206.966 274.201 C 205.744 274.945,205.717 274.945,204.765 274.196 C 203.090 272.878,200.781 273.381,200.781 275.062 C 200.781 275.541,201.286 275.885,202.441 276.195 C 207.482 277.547,208.500 278.333,208.847 281.137 C 209.508 286.485,200.470 289.052,196.911 284.527 L 196.034 283.412 197.138 282.528 C 198.501 281.438,199.280 281.411,200.195 282.422 C 201.554 283.923,205.191 283.126,204.554 281.467 C 204.433 281.151,203.315 280.599,202.069 280.241 C 198.885 279.325,197.758 278.674,197.077 277.357 C 194.753 272.862,200.077 268.342,205.346 270.339 M258.792 270.650 C 266.984 274.372,264.161 286.760,255.110 286.815 C 251.282 286.838,248.912 285.426,247.409 282.227 C 243.908 274.772,251.305 267.249,258.792 270.650 M276.717 270.807 C 279.368 272.327,279.717 273.497,279.597 280.469 L 279.492 286.523 277.989 286.647 C 276.985 286.729,276.243 286.551,275.755 286.109 C 275.075 285.494,274.929 285.492,273.683 286.083 C 269.671 287.987,265.234 285.859,265.234 282.031 C 265.234 279.033,267.404 277.234,271.904 276.503 C 275.357 275.942,275.564 275.812,274.779 274.691 C 273.949 273.506,271.236 273.492,269.744 274.665 C 268.541 275.612,266.016 274.905,266.016 273.621 C 266.016 270.687,273.208 268.795,276.717 270.807 M286.101 270.159 C 286.441 270.289,286.719 270.729,286.719 271.136 C 286.719 271.997,287.427 272.129,287.736 271.325 C 288.030 270.557,289.934 269.837,291.267 269.990 C 293.043 270.193,292.992 273.964,291.211 274.137 C 287.609 274.486,287.063 275.404,286.761 281.626 L 286.523 286.523 285.402 286.652 C 284.785 286.722,283.862 286.675,283.351 286.546 L 282.422 286.313 282.422 278.345 C 282.422 272.337,282.542 270.329,282.910 270.181 C 283.617 269.895,285.383 269.883,286.101 270.159 M112.891 278.279 C 112.891 286.893,112.935 286.719,110.742 286.719 C 108.550 286.719,108.594 286.893,108.594 278.279 L 108.594 270.313 110.742 270.313 L 112.891 270.313 112.891 278.279 M234.534 274.208 C 231.963 275.248,231.835 281.063,234.353 282.410 C 237.185 283.926,240.234 281.805,240.234 278.320 C 240.234 274.847,237.619 272.961,234.534 274.208 M252.645 274.596 C 249.391 277.155,251.010 282.813,254.995 282.813 C 257.953 282.813,259.814 280.036,258.967 276.889 C 258.212 274.084,254.847 272.864,252.645 274.596 M299.930 274.949 C 298.048 276.630,298.037 279.999,299.909 281.672 C 302.791 284.249,306.250 282.421,306.250 278.320 C 306.250 274.236,302.792 272.392,299.930 274.949 M185.938 279.981 C 183.415 281.241,183.947 283.185,186.816 283.197 C 188.623 283.205,189.844 282.105,189.844 280.469 C 189.844 279.045,188.218 278.842,185.938 279.981 M271.567 279.738 C 270.017 280.185,269.150 281.687,269.912 282.606 C 271.315 284.296,275.391 282.575,275.391 280.291 C 275.391 279.181,274.131 278.998,271.567 279.738 " stroke="none" fill="#29292a" fill-rule="evenodd"></path><path id="path1" d="M191.406 91.839 C 158.755 95.534,131.710 122.589,128.683 154.584 C 128.143 160.290,128.572 160.547,138.614 160.547 C 147.282 160.547,147.448 160.519,148.257 158.956 C 150.262 155.078,148.431 153.125,142.791 153.125 C 140.526 153.125,138.676 152.993,138.680 152.832 C 138.866 146.390,145.300 131.645,151.123 124.316 C 153.109 121.817,153.299 121.806,155.485 124.066 C 161.713 130.503,164.014 131.901,166.371 130.682 C 169.716 128.952,168.963 126.568,163.376 121.202 L 158.810 116.818 160.167 115.408 C 166.749 108.563,185.220 101.172,195.742 101.172 L 197.656 101.172 197.656 107.787 C 197.656 115.516,197.827 116.192,199.936 116.824 C 203.941 118.024,204.674 116.647,204.682 107.910 L 204.688 101.172 206.152 101.180 C 210.751 101.204,219.496 103.252,225.586 105.732 C 243.836 113.163,256.718 128.066,261.746 147.565 C 263.311 153.635,263.562 153.125,259.003 153.125 C 253.762 153.125,252.344 153.923,252.344 156.874 C 252.344 160.289,253.087 160.547,262.940 160.547 C 273.923 160.547,274.234 160.253,272.709 151.326 C 266.059 112.392,231.732 87.275,191.406 91.839 M237.485 122.379 C 232.381 125.476,224.979 130.646,225.083 131.042 C 225.270 131.760,231.947 137.500,232.595 137.500 C 232.989 137.500,234.501 134.900,236.933 130.040 C 241.500 120.916,241.573 119.898,237.485 122.379 M192.950 129.878 C 169.815 134.250,155.456 155.712,160.538 178.320 C 162.084 185.194,161.914 190.212,159.853 198.633 C 155.633 215.874,157.033 225.269,165.125 234.009 C 181.312 251.493,206.501 244.830,216.565 220.402 C 219.665 212.877,220.168 212.120,228.386 202.632 C 239.855 189.390,244.396 175.389,241.624 161.820 C 237.301 140.668,214.620 125.783,192.950 129.878 M207.813 140.277 C 219.452 143.192,228.793 152.786,231.106 164.198 C 233.353 175.289,229.245 186.443,218.683 197.925 C 213.247 203.835,209.212 210.383,207.417 216.211 C 202.474 232.254,184.339 238.376,173.478 227.669 C 167.484 221.760,166.486 214.895,169.762 202.115 C 172.123 192.904,172.453 187.059,171.084 178.671 C 168.802 164.693,170.884 156.470,178.699 148.593 C 186.858 140.370,196.820 137.524,207.813 140.277 M193.797 149.835 C 182.958 152.750,175.964 163.694,178.164 174.297 C 179.079 178.711,181.033 180.862,186.380 183.343 C 194.610 187.160,194.822 192.510,186.915 196.849 C 180.943 200.127,178.098 206.791,181.443 209.667 C 183.659 211.574,185.757 210.740,187.634 207.206 C 188.753 205.100,189.200 204.686,192.456 202.735 C 196.963 200.037,197.793 199.245,199.279 196.226 C 202.739 189.197,199.633 180.741,192.349 177.362 C 191.401 176.922,189.860 176.208,188.925 175.774 C 183.297 173.165,185.597 162.627,192.629 158.799 C 205.922 151.564,218.491 169.103,212.305 186.254 C 211.056 189.716,211.062 190.521,212.341 191.103 C 215.517 192.550,221.234 182.158,221.756 173.990 C 222.748 158.443,208.277 145.941,193.797 149.835 M108.984 264.453 C 107.512 265.925,108.607 268.359,110.742 268.359 C 111.972 268.359,113.281 267.081,113.281 265.881 C 113.281 263.868,110.495 262.942,108.984 264.453 M88.151 264.323 C 88.008 264.466,87.891 269.455,87.891 275.410 L 87.891 286.237 90.430 286.509 C 100.327 287.569,106.250 283.268,106.250 275.019 C 106.250 269.957,102.903 265.447,98.435 264.489 C 96.272 264.025,88.573 263.901,88.151 264.323 M160.840 264.283 C 160.679 264.448,160.547 269.473,160.547 275.448 L 160.547 286.313 161.575 286.571 C 163.503 287.055,170.256 286.374,172.315 285.488 C 180.238 282.080,180.696 269.740,173.059 265.474 C 170.907 264.272,161.724 263.377,160.840 264.283 M211.122 264.535 C 211.014 264.818,210.971 269.882,211.029 275.787 L 211.133 286.523 212.254 286.652 C 215.141 286.982,215.234 286.825,215.234 281.621 C 215.234 275.038,216.050 273.444,219.189 273.893 C 220.711 274.111,221.082 275.523,221.088 281.126 C 221.094 286.897,221.195 287.080,224.057 286.543 L 225.391 286.293 225.391 280.022 C 225.391 273.045,225.011 271.524,223.014 270.491 C 220.967 269.432,216.016 270.143,216.016 271.494 C 216.016 271.704,215.846 271.875,215.639 271.875 C 215.431 271.875,215.213 270.172,215.151 268.066 L 215.039 264.258 213.180 264.139 C 211.910 264.057,211.257 264.183,211.122 264.535 M228.403 264.305 C 227.598 265.110,228.109 286.270,228.940 286.534 C 230.152 286.919,232.422 286.391,232.422 285.724 C 232.422 284.989,232.545 285.005,234.073 285.936 C 236.531 287.435,240.480 286.854,242.435 284.705 C 248.667 277.853,241.803 266.466,234.096 270.873 L 232.449 271.814 232.338 268.036 L 232.227 264.258 230.454 264.142 C 229.479 264.079,228.557 264.152,228.403 264.305 M306.510 264.323 C 306.367 264.466,306.250 266.136,306.250 268.034 C 306.250 269.932,306.166 271.484,306.064 271.484 C 305.962 271.484,305.303 271.133,304.599 270.705 C 299.852 267.810,294.063 272.093,294.063 278.500 C 294.063 284.852,299.790 288.868,304.635 285.914 L 305.950 285.112 306.527 285.936 C 306.986 286.591,307.437 286.736,308.728 286.642 L 310.352 286.523 310.455 275.293 L 310.559 264.063 308.665 264.063 C 307.623 264.063,306.654 264.180,306.510 264.323 M98.441 269.238 C 104.617 273.441,100.737 283.746,93.503 282.357 C 92.789 282.220,92.134 270.471,92.751 268.863 C 93.093 267.971,96.955 268.226,98.441 269.238 M170.707 269.238 C 176.500 273.181,173.838 282.422,166.909 282.422 L 165.234 282.422 165.234 275.391 L 165.234 268.359 167.325 268.359 C 168.850 268.359,169.765 268.597,170.707 269.238 M116.113 270.181 C 115.826 270.296,115.625 271.088,115.625 272.103 L 115.625 273.828 118.750 273.828 C 122.572 273.828,122.583 273.550,118.555 278.861 C 113.398 285.659,113.723 286.530,121.459 286.669 C 127.987 286.785,128.125 286.742,128.125 284.577 C 128.125 282.529,128.006 282.474,124.121 282.727 C 120.292 282.976,120.291 282.999,124.414 277.874 C 127.917 273.519,128.860 270.828,127.116 270.159 C 126.383 269.877,116.818 269.896,116.113 270.181 M130.176 270.175 C 129.889 270.294,129.688 271.091,129.688 272.103 L 129.688 273.828 133.008 273.828 C 134.834 273.828,136.328 273.977,136.328 274.160 C 136.328 274.342,134.834 276.468,133.008 278.884 C 127.620 286.011,127.933 286.704,136.543 286.713 C 142.141 286.719,142.578 286.562,142.578 284.540 C 142.578 282.628,141.839 282.271,138.466 282.556 C 134.817 282.864,134.807 282.985,138.886 277.664 C 141.973 273.639,142.217 273.188,142.109 271.713 L 141.992 270.117 136.328 270.045 C 133.213 270.006,130.444 270.064,130.176 270.175 M143.498 270.516 C 143.372 270.842,144.520 274.449,146.049 278.531 C 149.469 287.664,149.486 288.381,146.289 288.737 C 144.418 288.945,144.471 292.711,146.347 292.893 C 150.144 293.262,151.367 291.566,155.681 279.953 C 159.446 269.818,159.435 269.934,156.641 269.934 C 154.624 269.934,154.517 270.087,152.910 275.293 C 152.097 277.925,151.324 280.078,151.192 280.078 C 151.059 280.078,150.280 278.013,149.459 275.488 C 148.638 272.964,147.687 270.679,147.346 270.410 C 146.452 269.707,143.780 269.780,143.498 270.516 M183.685 270.747 C 180.396 272.376,179.922 273.965,182.419 274.999 C 183.417 275.412,183.695 275.368,184.607 274.650 C 186.474 273.182,189.844 273.676,189.844 275.418 C 189.844 275.926,189.324 276.130,187.502 276.336 C 181.997 276.959,179.105 279.694,180.109 283.330 C 180.966 286.435,185.249 287.767,188.659 285.990 C 189.929 285.328,190.234 285.280,190.234 285.741 C 190.234 286.387,191.647 286.849,193.027 286.653 C 194.459 286.451,194.657 274.716,193.263 272.630 C 191.453 269.920,187.089 269.062,183.685 270.747 M199.132 270.783 C 194.335 273.563,195.854 278.454,202.069 280.241 C 203.315 280.599,204.433 281.151,204.554 281.467 C 205.191 283.126,201.554 283.923,200.195 282.422 C 199.280 281.411,198.501 281.438,197.138 282.528 L 196.034 283.412 196.911 284.527 C 200.470 289.052,209.508 286.485,208.847 281.137 C 208.500 278.333,207.482 277.547,202.441 276.195 C 201.286 275.885,200.781 275.541,200.781 275.062 C 200.781 273.381,203.090 272.878,204.765 274.196 C 205.717 274.945,205.744 274.945,206.966 274.201 C 210.985 271.757,203.264 268.387,199.132 270.783 M250.754 270.996 C 244.768 274.028,245.162 283.539,251.381 286.173 C 257.004 288.553,263.678 284.454,263.670 278.626 C 263.660 271.794,256.975 267.845,250.754 270.996 M269.240 270.503 C 266.128 271.856,265.255 273.869,267.348 274.867 C 268.621 275.474,268.728 275.465,269.744 274.665 C 271.236 273.492,273.949 273.506,274.779 274.691 C 275.564 275.812,275.357 275.942,271.904 276.503 C 267.404 277.234,265.234 279.033,265.234 282.031 C 265.234 285.859,269.671 287.987,273.683 286.083 C 274.929 285.492,275.075 285.494,275.755 286.109 C 276.243 286.551,276.985 286.729,277.989 286.647 L 279.492 286.523 279.597 280.469 C 279.717 273.497,279.368 272.327,276.717 270.807 C 274.920 269.777,271.254 269.628,269.240 270.503 M282.910 270.181 C 282.542 270.329,282.422 272.337,282.422 278.345 L 282.422 286.313 283.351 286.546 C 283.862 286.675,284.785 286.722,285.402 286.652 L 286.523 286.523 286.761 281.626 C 287.063 275.404,287.609 274.486,291.211 274.137 C 292.992 273.964,293.043 270.193,291.267 269.990 C 289.934 269.837,288.030 270.557,287.736 271.325 C 287.427 272.129,286.719 271.997,286.719 271.136 C 286.719 270.072,284.536 269.524,282.910 270.181 M108.594 278.279 C 108.594 286.893,108.550 286.719,110.742 286.719 C 112.935 286.719,112.891 286.893,112.891 278.279 L 112.891 270.313 110.742 270.313 L 108.594 270.313 108.594 278.279 M238.303 274.230 C 241.863 276.136,240.327 282.813,236.328 282.813 C 233.071 282.813,231.435 279.346,233.069 275.903 C 233.970 274.004,236.418 273.222,238.303 274.230 M257.555 274.630 C 258.883 275.675,259.487 277.883,258.963 279.780 C 257.761 284.134,251.807 283.668,250.961 279.154 C 250.221 275.213,254.535 272.255,257.555 274.630 M305.108 274.970 C 307.727 277.588,306.039 282.813,302.575 282.813 C 298.847 282.813,297.063 277.510,299.930 274.949 C 301.651 273.411,303.557 273.419,305.108 274.970 M189.844 280.469 C 189.844 282.636,186.780 284.097,184.829 282.860 C 183.173 281.810,185.813 279.299,188.574 279.297 C 189.725 279.297,189.844 279.407,189.844 280.469 M275.391 280.291 C 275.391 282.575,271.315 284.296,269.912 282.606 C 268.686 281.128,270.879 279.422,274.121 279.332 C 275.230 279.301,275.391 279.423,275.391 280.291 " stroke="none" fill="#fafafa" fill-rule="evenodd"></path></g></svg>